HIERARCHY
ROOT Hips
{
	OFFSET 0.000000 93.385445 0.000000
	CHANNELS 6 Xposition Yposition Zposition Xrotation Yrotation Zrotation
	JOINT RightUpLeg
	{
		OFFSET -8.267204 -0.002556 0.000284
		CHANNELS 6 Xposition Yposition Zposition Xrotation Yrotation Zrotation
		JOINT RightLeg
		{
			OFFSET 0.000000 -42.978920 0.000356
			CHANNELS 6 Xposition Yposition Zposition Xrotation Yrotation Zrotation
			JOINT RightFoot
			{
				OFFSET 0.000000 -41.964985 0.000601
				CHANNELS 6 Xposition Yposition Zposition Xrotation Yrotation Zrotation
				JOINT RightToeBase
				{
					OFFSET 0.000000 -6.852513 15.501974
					CHANNELS 6 Xposition Yposition Zposition Xrotation Yrotation Zrotation
					End Site
					{
						OFFSET 0.000000 0.000000 16.948986
					}
				}
			}
		}
	}
	JOINT LeftUpLeg
	{
		OFFSET 8.267204 -0.004822 0.000536
		CHANNELS 6 Xposition Yposition Zposition Xrotation Yrotation Zrotation
		JOINT LeftLeg
		{
			OFFSET 0.000000 -42.978920 0.000356
			CHANNELS 6 Xposition Yposition Zposition Xrotation Yrotation Zrotation
			JOINT LeftFoot
			{
				OFFSET 0.000000 -41.964985 0.000601
				CHANNELS 6 Xposition Yposition Zposition Xrotation Yrotation Zrotation
				JOINT LeftToeBase
				{
					OFFSET 0.000000 -6.852513 15.501974
					CHANNELS 6 Xposition Yposition Zposition Xrotation Yrotation Zrotation
					End Site
					{
						OFFSET 0.000000 0.000000 16.948986
					}
				}
			}
		}
	}
	JOINT Spine
	{
		OFFSET 0.000000 10.062492 -1.118055
		CHANNELS 6 Xposition Yposition Zposition Xrotation Yrotation Zrotation
		JOINT Spine1
		{
			OFFSET 0.000000 11.181747 0.000000
			CHANNELS 3 Xrotation Yrotation Zrotation
			JOINT Spine2
			{
				OFFSET 0.000000 10.208565 0.001507
				CHANNELS 6 Xposition Yposition Zposition Xrotation Yrotation Zrotation
				JOINT Spine3
				{
					OFFSET 0.000000 10.197166 0.001508
					CHANNELS 6 Xposition Yposition Zposition Xrotation Yrotation Zrotation
					JOINT LeftShoulder
					{
						OFFSET 3.104119 8.005707 0.000000
						CHANNELS 6 Xposition Yposition Zposition Xrotation Yrotation Zrotation
						JOINT LeftArm
						{
							OFFSET 14.462845 0.000000 0.000000
							CHANNELS 3 Xrotation Yrotation Zrotation
							JOINT LeftForeArm
							{
								OFFSET 30.948917 0.000000 0.000000
								CHANNELS 3 Xrotation Yrotation Zrotation
								JOINT LeftHand
								{
									OFFSET 25.302570 0.000000 0.000000
									CHANNELS 3 Xrotation Yrotation Zrotation
									End Site
									{
										OFFSET 25.302567 0.000000 0.000000
									}
								}
							}
						}
					}
					JOINT RightShoulder
					{
						OFFSET -3.104119 8.005707 0.000000
						CHANNELS 6 Xposition Yposition Zposition Xrotation Yrotation Zrotation
						JOINT RightArm
						{
							OFFSET -14.462845 0.000000 0.000000
							CHANNELS 3 Xrotation Yrotation Zrotation
							JOINT RightForeArm
							{
								OFFSET -30.948917 0.000000 0.000000
								CHANNELS 3 Xrotation Yrotation Zrotation
								JOINT RightHand
								{
									OFFSET -25.302570 0.000000 0.000000
									CHANNELS 3 Xrotation Yrotation Zrotation
									End Site
									{
										OFFSET -25.302567 0.000000 0.000000
									}
								}
							}
						}
					}
					JOINT Neck
					{
						OFFSET 0.000000 14.283447 0.000000
						CHANNELS 6 Xposition Yposition Zposition Xrotation Yrotation Zrotation
						JOINT Head
						{
							OFFSET 0.000000 9.493164 -0.003241
							CHANNELS 6 Xposition Yposition Zposition Xrotation Yrotation Zrotation
							End Site
							{
								OFFSET 0.000000 9.493164 0.000000
							}
						}
					}
				}
			}
		}
	}
}
MOTION
Frames: 8
Frame Time: 0.016667
0.000000 93.385437 0.000000 -0.000000 0.000000 -0.000000 -8.267204 -0.002556 0.000284 -0.000000 0.000000 -0.000000 0.000000 -42.978920 0.000356 -0.000000 0.000000 -0.000000 -0.000001 -41.964985 0.000601 0.000000 0.000000 0.000000 -0.000001 -6.852512 15.501974 0.000000 0.000000 0.000000 8.267204 -0.004822 0.000536 -0.000000 0.000000 -0.000000 0.000000 -42.978920 0.000356 -0.000000 0.000000 -0.000000 0.000001 -41.964985 0.000601 0.000000 0.000000 0.000000 0.000001 -6.852512 15.501974 0.000000 0.000000 0.000000 0.000000 10.062492 -1.118055 -0.000000 0.000000 -0.000000 -0.000000 0.000000 -0.000000 0.000000 10.208565 0.001507 -0.000000 0.000000 -0.000000 0.000000 10.197151 0.001508 -0.000000 0.000000 -0.000000 3.104119 8.005707 0.000000 -0.000000 0.000000 -0.000000 -0.000000 0.000000 -0.000000 -0.000000 0.000000 -0.000000 -0.000000 0.000000 -0.000000 -3.104119 8.005707 0.000000 -0.000000 0.000000 -0.000000 -0.000000 0.000000 -0.000000 -0.000000 0.000000 -0.000000 -0.000000 0.000000 -0.000000 0.000000 14.283447 0.000000 -0.000000 0.000000 -0.000000 0.000000 9.493164 -0.003241 -0.000000 0.000000 -0.000000 
-317.956207 74.789261 88.590263 77.310891 102.889813 -77.452494 -8.267206 -0.002559 0.000297 -43.489259 2.592279 -4.221465 0.000005 -42.978947 0.000357 54.688597 0.078828 -0.075061 0.000015 -41.964989 0.000607 3.791267 12.242664 7.796215 0.000004 -6.852514 15.501959 -2.803367 0.069050 -3.344366 8.267201 -0.004822 0.000557 -43.633202 -4.496975 4.772482 -0.000014 -42.978962 0.000358 55.780427 0.086207 -0.241849 0.000005 -41.964985 0.000595 3.622064 -6.020933 -7.155147 -0.000013 -6.852513 15.501948 -3.144914 -0.043515 1.786139 0.000007 10.062503 -1.118028 10.958143 0.432793 0.760239 -0.955294 0.138120 0.363945 0.000011 10.208571 0.001527 4.865137 0.138082 0.363959 0.000003 10.197162 0.001481 9.485568 0.127999 0.262442 3.104118 8.005741 0.000008 -4.458530 1.907819 -11.382719 -13.368232 -5.604698 -74.595822 70.415091 -119.425830 56.359661 -10.418662 -22.482138 35.405785 -3.104125 8.005703 -0.000026 1.754297 -3.499804 2.693077 -22.006741 0.268608 82.874012 34.971566 109.884329 -15.900423 14.162720 13.967201 -45.336228 -0.000005 14.283464 -0.000004 13.293125 -5.841500 0.153276 -0.000004 9.493180 -0.003208 -11.546079 -10.656793 -2.061344 
-317.881989 74.806137 88.591278 77.535638 103.130809 -77.655160 -8.267204 -0.002569 0.000307 -43.159265 2.584377 -4.218349 -0.000003 -42.978897 0.000372 54.646831 0.072233 -0.106066 -0.000000 -41.964981 0.000643 3.717853 12.241649 7.815302 0.000004 -6.852514 15.501937 -3.013714 0.082227 -3.346839 8.267197 -0.004840 0.000551 -43.295538 -4.481655 4.770361 0.000006 -42.978989 0.000352 55.734818 0.084422 -0.260878 -0.000005 -41.964981 0.000599 3.552103 -6.015643 -7.134349 -0.000002 -6.852513 15.501939 -3.364775 -0.050525 1.777637 0.000005 10.062483 -1.118071 11.046312 0.426923 0.745220 -0.916135 0.136420 0.357005 -0.000004 10.208569 0.001509 4.904297 0.136383 0.357019 0.000008 10.197161 0.001501 9.514936 0.126234 0.257386 3.104116 8.005712 -0.000018 -4.360328 1.892851 -11.279161 -13.454942 -5.574093 -74.669452 70.135579 -119.149044 56.220158 -10.241841 -22.452703 35.487272 -3.104119 8.005718 -0.000007 1.791374 -3.483556 2.670688 -22.022603 0.275204 82.890356 32.823622 109.642254 -13.915938 14.577201 13.960382 -44.975706 -0.000001 14.283442 -0.000014 13.320890 -5.833331 0.144016 0.000010 9.493165 -0.003267 -11.494238 -10.638717 -2.072636 
-317.822388 74.827507 88.590813 77.742832 103.336821 -77.843038 -8.267206 -0.002550 0.000319 -42.887209 2.580541 -4.221312 -0.000001 -42.978870 0.000328 54.634564 0.071851 -0.125676 -0.000007 -41.964977 0.000633 3.640368 12.242881 7.834919 -0.000001 -6.852513 15.502005 -3.083501 0.087287 -3.354493 8.267201 -0.004813 0.000562 -43.018051 -4.461217 4.770012 -0.000002 -42.978958 0.000338 55.714854 0.077968 -0.268023 0.000003 -41.964981 0.000583 3.483133 -6.005274 -7.116278 0.000009 -6.852512 15.501998 -3.429976 -0.052540 1.765160 -0.000008 10.062504 -1.118019 11.122298 0.421705 0.731649 -0.882385 0.134933 0.350735 0.000003 10.208568 0.001515 4.938045 0.134897 0.350749 -0.000007 10.197174 0.001514 9.540249 0.124678 0.252813 3.104133 8.005713 0.000025 -4.278887 1.859344 -11.195363 -13.525944 -5.507634 -74.709572 70.014384 -118.970052 56.188316 -10.297715 -22.420048 35.431142 -3.104104 8.005715 0.000005 1.817413 -3.470250 2.652812 -22.054145 0.324212 82.848535 32.026221 109.542116 -13.150780 15.105534 13.954587 -44.745450 0.000011 14.283452 0.000014 13.348715 -5.824964 0.143833 -0.000003 9.493181 -0.003235 -11.441661 -10.623891 -2.067298 
-317.770599 74.849037 88.589920 77.942116 103.521605 -78.024645 -8.267199 -0.002554 0.000293 -42.649480 2.579923 -4.225717 -0.000008 -42.978928 0.000384 54.635909 0.073416 -0.138980 0.000005 -41.964985 0.000611 3.565482 12.246970 7.852995 0.000008 -6.852514 15.501964 -3.095904 0.088972 -3.363992 8.267210 -0.004822 0.000542 -42.774958 -4.439309 4.769610 -0.000005 -42.978897 0.000332 55.707730 0.072133 -0.268063 0.000005 -41.964981 0.000561 3.416519 -5.992738 -7.102362 0.000003 -6.852510 15.502044 -3.429155 -0.052451 1.752088 0.000006 10.062502 -1.118040 11.189584 0.421459 0.716784 -0.852500 0.135740 0.344233 0.000005 10.208591 0.001474 4.967931 0.135705 0.344247 0.000006 10.197162 0.001542 9.562662 0.124822 0.247909 3.104137 8.005701 -0.000008 -4.202415 1.812216 -11.123244 -13.594580 -5.432217 -74.732242 70.004016 -118.868378 56.228467 -10.345599 -22.381616 35.362608 -3.104112 8.005729 -0.000000 1.847032 -3.452911 2.640235 -22.086911 0.370716 82.786066 31.603832 109.482571 -12.728227 15.560781 13.952035 -44.555032 0.000005 14.283465 -0.000013 13.377665 -5.819178 0.153330 0.000003 9.493161 -0.003198 -11.386509 -10.617614 -2.045280 
-317.722198 74.866783 88.589317 78.141114 103.692080 -78.206779 -8.267210 -0.002567 0.000311 -42.434715 2.582693 -4.228971 0.000010 -42.978893 0.000357 54.642039 0.073407 -0.147860 -0.000001 -41.964981 0.000609 3.499301 12.256826 7.867394 0.000013 -6.852511 15.501989 -3.106839 0.090460 -3.373611 8.267200 -0.004834 0.000547 -42.552557 -4.419734 4.766425 0.000003 -42.978962 0.000365 55.706838 0.074289 -0.263022 -0.000004 -41.964996 0.000607 3.352930 -5.980652 -7.095892 0.000008 -6.852512 15.501968 -3.416971 -0.052050 1.741430 0.000000 10.062468 -1.118011 11.249570 0.432711 0.696487 -0.825849 0.141994 0.336134 0.000015 10.208582 0.001485 4.994582 0.141959 0.336149 -0.000006 10.197179 0.001516 9.582656 0.128929 0.241442 3.104128 8.005719 0.000038 -4.118175 1.748539 -11.056952 -13.678562 -5.367181 -74.745315 70.161814 -118.907651 56.373660 -10.138262 -22.326650 35.409005 -3.104109 8.005701 0.000009 1.896201 -3.424349 2.636528 -22.108426 0.371236 82.727620 30.698323 109.400977 -11.872034 15.704803 13.965771 -44.313984 0.000004 14.283442 0.000016 13.410486 -5.819056 0.178470 -0.000005 9.493164 -0.003270 -11.323456 -10.627842 -1.996734 
-317.678711 74.882767 88.588997 78.337195 103.846579 -78.387656 -8.267212 -0.002543 0.000313 -42.242603 2.588255 -4.229043 0.000018 -42.978954 0.000376 54.650949 0.073783 -0.154692 -0.000008 -41.964977 0.000570 3.440232 12.266695 7.878906 -0.000005 -6.852514 15.502014 -3.105884 0.091137 -3.381916 8.267197 -0.004816 0.000565 -42.352565 -4.398561 4.764450 0.000005 -42.978973 0.000371 55.710172 0.074773 -0.253709 -0.000000 -41.964985 0.000588 3.294831 -5.966538 -7.092601 -0.000002 -6.852514 15.501955 -3.394323 -0.051307 1.731486 -0.000007 10.062512 -1.118035 11.300979 0.448646 0.676253 -0.803006 0.150319 0.328384 0.000012 10.208575 0.001519 5.017426 0.150285 0.328399 -0.000003 10.197187 0.001497 9.599795 0.134610 0.235093 3.104121 8.005699 -0.000017 -4.040343 1.680643 -11.002065 -13.754350 -5.310877 -74.752404 70.266063 -118.895084 56.479712 -9.863574 -22.277967 35.466669 -3.104123 8.005700 -0.000034 1.952441 -3.387841 2.635827 -22.124012 0.351995 82.672739 29.786298 109.321317 -11.019617 15.784209 13.974115 -44.112101 -0.000002 14.283454 -0.000006 13.441957 -5.823155 0.208303 -0.000007 9.493173 -0.003253 -11.262921 -10.647550 -1.941453 
-317.639587 74.898361 88.588997 78.542476 103.985409 -78.580322 -8.267208 -0.002564 0.000235 -42.068255 2.596024 -4.220673 0.000006 -42.978924 0.000377 54.656454 0.076705 -0.163580 0.000010 -41.964985 0.000579 3.389200 12.271357 7.887018 0.000005 -6.852511 15.501955 -3.101155 0.091433 -3.386565 8.267200 -0.004833 0.000512 -42.171258 -4.368581 4.769312 0.000002 -42.978951 0.000324 55.713518 0.062062 -0.239399 0.000007 -41.964985 0.000553 3.245688 -5.946635 -7.088708 -0.000001 -6.852510 15.501983 -3.384053 -0.050844 1.721048 -0.000003 10.062475 -1.118046 11.341299 0.464581 0.661119 -0.785087 0.158312 0.322870 -0.000003 10.208572 0.001478 5.035344 0.158279 0.322886 0.000001 10.197170 0.001495 9.613239 0.140197 0.230436 3.104113 8.005711 -0.000005 -3.978530 1.616810 -10.967983 -13.799750 -5.269008 -74.754378 70.059791 -118.609363 56.380797 -9.651739 -22.262448 35.460788 -3.104128 8.005701 -0.000005 2.010996 -3.337826 2.631311 -22.134918 0.321618 82.628241 29.082706 109.238146 -10.374125 16.009902 13.946952 -44.030893 -0.000009 14.283442 0.000023 13.469118 -5.832215 0.231981 0.000002 9.493156 -0.003235 -11.211185 -10.673725 -1.899749 
